<svg width="29" height="26" viewBox="0 0 29 26" fill="none" xmlns="http://www.w3.org/2000/svg">
<path d="M1.5 1H2.40948C3.94041 1 5.22575 2.15275 5.39178 3.67466L6.60822 14.8253C6.77425 16.3472 8.05959 17.5 9.59053 17.5H22.569C23.9404 17.5 25.1371 16.5701 25.476 15.2413L27.5459 7.12466C28.0296 5.22781 26.5965 3.38333 24.6389 3.38333H6.9M6.93713 22.9374H8.06213M6.93713 24.0624H8.06213M23.4371 22.9374H24.5621M23.4371 24.0624H24.5621M9 23.5C9 24.3284 8.32843 25 7.5 25C6.67157 25 6 24.3284 6 23.5C6 22.6716 6.67157 22 7.5 22C8.32843 22 9 22.6716 9 23.5ZM25.5 23.5C25.5 24.3284 24.8284 25 24 25C23.1716 25 22.5 24.3284 22.5 23.5C22.5 22.6716 23.1716 22 24 22C24.8284 22 25.5 22.6716 25.5 23.5Z" stroke="#FABB4B" stroke-width="2" stroke-linecap="round"/>
</svg>
