<svg width="236" height="202" viewBox="0 0 236 202" fill="none" xmlns="http://www.w3.org/2000/svg">
<path d="M5.44512 29.1745C23.0995 10.0352 49.8139 0.333496 84.8334 0.333496H97.4167V35.8059L87.2997 37.8318C70.0605 41.2797 58.0686 48.0621 51.6511 58.0155C48.3026 63.3776 46.4035 69.5172 46.1396 75.8335H84.8334C88.1707 75.8335 91.3713 77.1592 93.7311 79.5191C96.091 81.8789 97.4167 85.0795 97.4167 88.4168V176.5C97.4167 190.38 86.1295 201.667 72.25 201.667H-3.24996C-6.58727 201.667 -9.78789 200.341 -12.1477 197.981C-14.5076 195.621 -15.8333 192.421 -15.8333 189.083V126.167L-15.7955 89.4361C-15.9088 88.0393 -18.2996 54.9452 5.44512 29.1745ZM210.667 201.667H135.167C131.829 201.667 128.629 200.341 126.269 197.981C123.909 195.621 122.583 192.421 122.583 189.083V126.167L122.621 89.4361C122.508 88.0393 120.117 54.9452 143.862 29.1745C161.516 10.0352 188.231 0.333496 223.25 0.333496H235.833V35.8059L225.716 37.8318C208.477 41.2797 196.485 48.0621 190.068 58.0155C186.719 63.3776 184.82 69.5172 184.556 75.8335H223.25C226.587 75.8335 229.788 77.1592 232.148 79.5191C234.508 81.8789 235.833 85.0795 235.833 88.4168V176.5C235.833 190.38 224.546 201.667 210.667 201.667Z" fill="#F7F7F7"/>
</svg>
