<svg width="48" height="36" viewBox="0 0 48 36" fill="none" xmlns="http://www.w3.org/2000/svg">
<path d="M11.1667 14.3333C10.6463 14.3333 10.147 14.4127 9.65 14.485C9.811 13.9437 9.97667 13.393 10.2427 12.8983C10.5087 12.1797 10.924 11.5567 11.337 10.929C11.6823 10.25 12.2913 9.79032 12.7393 9.20932C13.2083 8.64465 13.8477 8.26899 14.354 7.79999C14.851 7.30999 15.502 7.06499 16.02 6.71965C16.5613 6.40932 17.0327 6.06632 17.5367 5.90299L18.7943 5.38499L19.9003 4.92532L18.7687 0.40332L17.3757 0.739319C16.93 0.851319 16.3863 0.981986 15.768 1.13832C15.1357 1.25499 14.4613 1.57465 13.71 1.86632C12.968 2.19765 12.1093 2.42165 11.3113 2.95365C10.5087 3.46232 9.58234 3.88699 8.76567 4.56832C7.97467 5.27065 7.02034 5.87965 6.31567 6.77332C5.54567 7.60865 4.785 8.48599 4.19467 9.48465C3.511 10.4367 3.04667 11.482 2.55667 12.5157C2.11334 13.5493 1.75634 14.6063 1.46467 15.633C0.91167 17.691 0.664336 19.6463 0.56867 21.3193C0.489336 22.9947 0.536003 24.3877 0.634003 25.3957C0.669003 25.8717 0.734337 26.3337 0.781003 26.6533L0.839336 27.0453L0.900003 27.0313C1.31501 28.9699 2.27038 30.7514 3.65558 32.1697C5.04079 33.5881 6.79923 34.5852 8.7275 35.0459C10.6558 35.5066 12.675 35.4119 14.5518 34.7729C16.4285 34.1339 18.0859 32.9766 19.3324 31.435C20.5789 29.8933 21.3634 28.0303 21.5953 26.0613C21.8272 24.0924 21.4969 22.0981 20.6426 20.309C19.7884 18.52 18.4451 17.0093 16.7682 15.9518C15.0913 14.8943 13.1492 14.3332 11.1667 14.3333ZM36.8333 14.3333C36.313 14.3333 35.8137 14.4127 35.3167 14.485C35.4777 13.9437 35.6433 13.393 35.9093 12.8983C36.1753 12.1797 36.5907 11.5567 37.0037 10.929C37.349 10.25 37.958 9.79032 38.406 9.20932C38.875 8.64465 39.5143 8.26899 40.0207 7.79999C40.5177 7.30999 41.1687 7.06499 41.6867 6.71965C42.228 6.40932 42.6993 6.06632 43.2033 5.90299L44.461 5.38499L45.567 4.92532L44.4353 0.40332L43.0423 0.739319C42.5967 0.851319 42.053 0.981986 41.4347 1.13832C40.8023 1.25499 40.128 1.57465 39.3767 1.86632C38.637 2.19999 37.776 2.42165 36.978 2.95599C36.1753 3.46465 35.249 3.88932 34.4323 4.57065C33.6413 5.27299 32.687 5.88199 31.9823 6.77332C31.2123 7.60865 30.4517 8.48599 29.8613 9.48465C29.1777 10.4367 28.7133 11.482 28.2233 12.5157C27.78 13.5493 27.423 14.6063 27.1313 15.633C26.5783 17.691 26.331 19.6463 26.2353 21.3193C26.156 22.9947 26.2027 24.3877 26.3007 25.3957C26.3357 25.8717 26.401 26.3337 26.4477 26.6533L26.506 27.0453L26.5667 27.0313C26.9817 28.9699 27.937 30.7514 29.3223 32.1697C30.7075 33.5881 32.4659 34.5852 34.3942 35.0459C36.3224 35.5066 38.3417 35.4119 40.2184 34.7729C42.0951 34.1339 43.7526 32.9766 44.9991 31.435C46.2456 29.8933 47.0301 28.0303 47.262 26.0613C47.4938 24.0924 47.1636 22.0981 46.3093 20.309C45.4551 18.52 44.1118 17.0093 42.4349 15.9518C40.7579 14.8943 38.8159 14.3332 36.8333 14.3333Z" fill="white"/>
</svg>
