<svg width="28" height="28" viewBox="0 0 28 28" fill="none" xmlns="http://www.w3.org/2000/svg">
<path d="M26.1263 27.5403C26.5168 27.9308 27.15 27.9308 27.5405 27.5403C27.931 27.1498 27.931 26.5166 27.5405 26.1261L26.1263 27.5403ZM21.304 11.7351C21.304 17.0197 17.02 21.3038 11.7354 21.3038V23.3038C18.1246 23.3038 23.304 18.1243 23.304 11.7351H21.304ZM11.7354 21.3038C6.45077 21.3038 2.16675 17.0197 2.16675 11.7351H0.166748C0.166748 18.1243 5.3462 23.3038 11.7354 23.3038V21.3038ZM2.16675 11.7351C2.16675 6.45052 6.45077 2.1665 11.7354 2.1665V0.166504C5.3462 0.166504 0.166748 5.34595 0.166748 11.7351H2.16675ZM11.7354 2.1665C17.02 2.1665 21.304 6.45052 21.304 11.7351H23.304C23.304 5.34595 18.1246 0.166504 11.7354 0.166504V2.1665ZM18.5773 19.9913L26.1263 27.5403L27.5405 26.1261L19.9915 18.577L18.5773 19.9913Z" fill="#FABB4B"/>
</svg>
