<svg width="28" height="28" viewBox="0 0 28 28" fill="none" xmlns="http://www.w3.org/2000/svg">
<path d="M22.8758 22.3924C22.413 21.4858 21.8023 20.6353 21.0437 19.8767C17.1537 15.9866 10.8466 15.9866 6.95659 19.8767C6.19796 20.6353 5.58728 21.4858 5.12455 22.3924M1.16675 13.9998C1.16675 6.91218 6.91243 1.1665 14.0001 1.1665C21.0877 1.1665 26.8334 6.91218 26.8334 13.9998C26.8334 21.0875 21.0877 26.8332 14.0001 26.8332C6.91243 26.8332 1.16675 21.0875 1.16675 13.9998ZM18.6667 11.6665C18.6667 14.2438 16.5774 16.3332 14.0001 16.3332C11.4228 16.3332 9.33342 14.2438 9.33342 11.6665C9.33342 9.08917 11.4228 6.99984 14.0001 6.99984C16.5774 6.99984 18.6667 9.08917 18.6667 11.6665Z" stroke="#091C42" stroke-width="1.5"/>
</svg>
